<?xml version="1.0" standalone="no"?>
<!DOCTYPE svg PUBLIC "-//W3C//DTD SVG 20010904//EN"
 "http://www.w3.org/TR/2001/REC-SVG-20010904/DTD/svg10.dtd">
<svg version="1.0" xmlns="http://www.w3.org/2000/svg"
 width="290.000000pt" height="290.000000pt" viewBox="0 0 290.000000 290.000000"
 preserveAspectRatio="xMidYMid meet">
<metadata>
Created by potrace 1.11, written by Peter Selinger 2001-2013
</metadata>
<g transform="translate(0.000000,290.000000) scale(0.100000,-0.100000)"
fill="#000000" stroke="none">
<path d="M733 2732 c-425 -566 -611 -1059 -547 -1445 51 -312 255 -559 596
-722 62 -30 143 -65 181 -79 76 -29 75 -31 52 66 -30 132 -73 415 -90 593 -4
33 -8 76 -10 95 -2 19 -7 76 -10 125 -4 50 -9 101 -11 115 -7 39 -18 670 -11
670 3 0 11 -26 17 -57 54 -276 155 -683 225 -908 45 -146 129 -386 145 -414 4
-7 10 31 13 85 10 167 61 303 154 419 62 76 131 128 267 201 60 33 114 66 119
75 23 37 -99 326 -200 475 -149 219 -399 462 -695 676 -152 111 -136 109 -195
30z"/>
<path d="M2487 1474 c-1 -1 -40 -4 -87 -8 -365 -28 -606 -113 -773 -273 -145
-138 -199 -279 -192 -498 5 -139 41 -325 64 -325 3 0 51 44 106 98 55 53 149
136 208 184 141 112 377 270 377 251 0 -4 -26 -35 -57 -68 -83 -88 -190 -219
-254 -310 -64 -91 -179 -286 -179 -302 0 -34 302 -56 434 -32 183 32 370 196
468 410 47 100 90 270 104 407 3 31 7 67 9 80 10 62 15 358 6 372 -8 12 -34
15 -121 15 -61 1 -112 0 -113 -1z"/>
</g>
</svg>
